<svg xmlns="http://www.w3.org/2000/svg" width="595" height="595" viewBox="0 0 0 0 595 0 595"><g fill="#292929"><path d="M586.81 3.203c-5.095-3.459-11.64-4.165-17.329-1.86L390.463 72.928 211.779 1.455h-.037l-.297-.112a18.443 18.443 0 0 0-13.797 0l-.334.112h-.037l-185.6 74.262C4.648 78.543 0 85.349 0 92.972v334.682a18.6 18.6 0 0 0 8.144 15.396 18.591 18.591 0 0 0 10.449 3.198c2.343 0 4.649-.447 6.88-1.339l113.792-45.368c9.557-3.793 14.205-14.615 10.375-24.134-3.793-9.557-14.652-14.206-24.134-10.413L37.187 400.21V105.541l148.748-59.499v141.385c0 10.263 8.329 18.593 18.593 18.593s18.594-8.33 18.594-18.593V46.079l148.747 59.499v27.928c0 10.263 8.33 18.593 18.594 18.593 10.263 0 18.593-8.33 18.593-18.593v-27.928l148.748-59.499V353.28c0 10.264 8.33 18.594 18.593 18.594 10.264 0 18.594-8.33 18.594-18.594V18.598c0-6.173-3.087-11.937-8.181-15.395"/><path d="M353.276 483.435c-71.771 0-130.154-58.384-130.154-130.155 0-71.77 58.383-130.154 130.154-130.154 71.771 0 130.154 58.384 130.154 130.154 0 71.771-58.383 130.155-130.154 130.155m236.285 79.84L483.43 457.143c22.907-28.634 37.187-64.445 37.187-103.863 0-92.26-75.081-167.341-167.341-167.341-92.261 0-167.341 75.081-167.341 167.341 0 92.261 75.08 167.342 167.341 167.342 39.418 0 75.229-14.28 103.863-37.187l106.094 106.094a18.558 18.558 0 0 0 13.164 5.466c4.76 0 9.52-1.822 13.164-5.429 7.252-7.251 7.252-19.04 0-26.291"/></g></svg>