<svg xmlns="http://www.w3.org/2000/svg" width="595" height="455" viewBox="0 0 0 0 595 0 455"><g fill="#292929"><path d="M297.848 396.944c-84.286 0-152.857-68.572-152.857-152.857 0-84.284 68.57-152.856 152.857-152.856 84.285 0 152.857 68.57 152.857 152.856 0 84.285-68.572 152.857-152.857 152.857m0-328.954c-97.101 0-176.098 78.997-176.098 176.098 0 97.101 78.998 176.099 176.098 176.099 97.1 0 176.099-78.998 176.099-176.099 0-97.101-78.998-176.098-176.099-176.098"/><path d="M402.091 187.284c-3.076-5.633-10.134-7.706-15.768-4.631-.189.104-.363.222-.544.334-5.212 3.224-7.06 9.99-4.087 15.435 7.595 13.911 11.609 29.703 11.609 45.666 0 52.633-42.82 95.453-95.453 95.453-52.634 0-95.453-42.821-95.453-95.453 0-52.633 42.82-95.453 95.453-95.453 5.05 0 10.119.397 15.064 1.181 6.134.974 11.879-3.042 13.166-9.033.045-.208.097-.412.131-.626 1.004-6.339-3.32-12.293-9.659-13.297a119.857 119.857 0 0 0-18.703-1.468c-65.448 0-118.696 53.247-118.696 118.696s53.247 118.696 118.696 118.696 118.696-53.248 118.696-118.696c0-19.844-4.997-39.486-14.452-56.804"/><path d="M372.096 146.98a11.057 11.057 0 0 0-1.766-1.441 11.409 11.409 0 0 0-2.011-1.069 11.682 11.682 0 0 0-2.173-.663 11.508 11.508 0 0 0-4.544 0 11.99 11.99 0 0 0-2.173.663c-.697.29-1.371.65-1.999 1.069a11.71 11.71 0 0 0-1.778 1.441 11.811 11.811 0 0 0-1.441 1.766 11.542 11.542 0 0 0-1.069 2.011c-.184.439-.329.894-.455 1.356-.075.271-.15.541-.206.817-.15.742-.221 1.509-.221 2.265 0 .767.07 1.523.221 2.279.151.743.372 1.464.662 2.172a11.806 11.806 0 0 0 2.511 3.766 12.557 12.557 0 0 0 1.777 1.453c.628.418 1.302.778 1.999 1.069.709.29 1.43.511 2.173.662.756.151 1.523.22 2.278.22a11.504 11.504 0 0 0 4.439-.882c.609-.25 1.185-.559 1.734-.904.091-.057.187-.106.276-.165.639-.43 1.232-.918 1.766-1.453a11.102 11.102 0 0 0 1.441-1.766c.419-.628.779-1.302 1.069-2 .291-.708.512-1.44.663-2.172.151-.756.232-1.512.232-2.279a11.7 11.7 0 0 0-3.405-8.215M570.629 421.274c-2.119 5.364-7.03 9.441-13.146 10.191-8.901 1.1-17.024-5.256-18.116-14.153l-14.771-120.296 32.269-3.961 14.77 120.295a16.173 16.173 0 0 1-1.006 7.924M491.589 28.19c-.057-.466-.209-1.708 1.347-2.442.426-.201.801-.278 1.126-.278.861 0 1.378.546 1.611.792l1.014 1.07a139.712 139.712 0 0 1 20.16 27.247c9.096 16.058 14.849 33.489 17.097 51.805l20.089 163.602-32.269 3.961zm103.114 382.327l-37.692-306.965c-2.623-21.365-9.332-41.696-19.942-60.427a163.009 163.009 0 0 0-23.514-31.781l-1.014-1.07c-7.745-8.171-19.329-10.349-29.516-5.548-10.184 4.799-15.879 15.122-14.506 26.297l47.778 389.122c.153 1.249.363 2.478.628 3.684 3.97 18.086 20.123 31.005 38.546 31.003a39.66 39.66 0 0 0 4.842-.297c12.834-1.575 23.487-9.177 29.468-19.618a39.53 39.53 0 0 0 3.133-6.943 39.236 39.236 0 0 0 1.789-17.457M57.822 409.881a17.08 17.08 0 0 1-6.337 11.839c-3.659 2.953-8.24 4.271-12.901 3.691l-.212-.026a17.078 17.078 0 0 1-11.598-6.655 17.083 17.083 0 0 1-3.343-12.912l39.211-252.327 9.17 1.126.013.003h.01l9.163 1.124zm85.497-396.523c-6.373-.785-12.169 3.749-12.951 10.119l-10.569 86.079c-1.648 13.416-12.489 23.537-25.906 24.355l-7.704-.946 13.9-113.205c.782-6.369-3.747-12.168-10.118-12.952-6.372-.789-12.169 3.749-12.951 10.119l-13.9 113.205-7.71-.946c-12.818-4.042-20.887-16.484-19.24-29.898l10.569-86.079C47.521 6.84 42.991 1.041 36.621.258c-6.37-.791-12.169 3.749-12.951 10.118L13.101 96.455c-2.644 21.537 8.348 41.73 26.891 51.415L.457 402.299l-.014.087c-1.605 10.876 1.181 21.683 7.843 30.427 6.663 8.745 16.342 14.3 27.245 15.639l.211.025c1.684.207 3.364.309 5.032.309 9.191 0 18.027-3.107 25.304-8.978 8.598-6.937 13.886-16.816 14.889-27.817l23.368-256.219c20.336-4.91 35.89-21.844 38.534-43.382l10.569-86.08c.781-6.37-3.749-12.169-10.119-12.952"/></g></svg>