<svg xmlns="http://www.w3.org/2000/svg" width="595" height="686" viewBox="0 0 0 0 595 0 686"><g fill="#292929"><path d="M566.093 162.882l-79.451 147.316h-163.87L446.916 80.947l112.556 61.244c8.276 3.31 10.759 13.242 6.621 20.691M542.92 467.446h.827v72.004h-78.624c-7.448 0-13.242-5.794-13.242-13.242v-45.52c0-7.448 5.794-13.242 13.242-13.242zm-26.484 184.56a7.418 7.418 0 0 1-7.449 7.449H33.105a7.418 7.418 0 0 1-7.449-7.449V344.131a7.418 7.418 0 0 1 7.449-7.449H508.16a7.418 7.418 0 0 1 7.448 7.449v96.831h-50.485c-22.345 0-39.725 18.208-39.725 39.726v45.52c0 22.345 18.207 39.725 39.725 39.725h51.313v86.073zM25.656 282.887c0-2.483 3.311-6.621 7.449-6.621h134.902l-18.208 33.105H33.105c-2.483 0-4.966 0-7.449.827v-27.311M329.393 34.6c4.138-7.448 14.07-10.759 21.519-6.621l20.69 11.587-145.661 270.632h-45.52zm94.349 33.105L292.978 310.198h-37.243l139.868-257.39zm148.972 50.485L363.326 4.806c-19.863-10.759-47.175-2.483-57.934 17.38L182.904 249.782H33.932C14.897 249.782 0 264.679 0 283.714v368.292c0 19.035 14.897 33.932 33.932 33.932h475.883c19.035 0 33.932-14.897 33.932-33.932v-86.073h14.07c7.449 0 13.242-5.793 13.242-13.242v-98.487c0-7.448-5.793-13.242-13.242-13.242h-14.07v-96.831c0-15.725-11.586-29.795-26.483-33.105l72.83-134.902c10.759-20.691 3.311-46.347-17.38-57.934"/><path d="M506.504 186.055l-8.276 15.725c-2.483 4.138-8.276 5.793-12.414 3.31l-6.621-4.138c-1.655-.827-3.31-3.31-4.138-4.966-.828-2.482-.828-4.965.828-6.621l8.276-15.724c1.655-2.483 4.965-4.966 8.276-4.966 1.655 0 2.483 0 4.138.828l6.621 3.31c3.31 3.311 4.966 8.276 3.31 13.242m9.104-35.588l-6.621-3.31c-16.552-9.104-38.898-2.483-48.002 14.069l-8.276 15.725c-4.138 8.276-5.793 18.208-2.483 27.312 2.483 9.104 9.104 16.552 17.38 20.69l6.621 3.311c4.966 2.483 10.759 4.138 16.553 4.138 13.242 0 24.828-7.449 31.449-18.208l8.276-15.725c8.277-17.38 1.656-38.898-14.897-48.002"/></g></svg>