<svg xmlns="http://www.w3.org/2000/svg" width="595" height="595" viewBox="0 0 0 0 595 0 595"><g fill="#292929"><path d="M534.562 118.445a52.85 52.85 0 0 0-18.381-5.992c-28.903-3.815-55.507 16.611-59.312 45.512-1.843 13.999 1.876 27.878 10.472 39.08 8.28 10.79 20.133 17.84 33.505 19.99l-23.099 67.541-26.563-20.384c-5.091-3.905-12.388-2.947-16.294 2.145-3.907 5.093-2.946 12.387 2.145 16.294l32.778 25.151-60.075 175.659a63.291 63.291 0 0 0-17.341-10.739c-123.16-51.016-219.081-146.936-270.094-270.095a63.544 63.544 0 0 0-6.518-11.923l31.12-11.096c1.086 9.376 4.685 18.32 10.581 26.002 8.595 11.203 21.04 18.387 35.039 20.229a53.62 53.62 0 0 0 7.01.463c11.56 0 22.744-3.777 32.07-10.932 11.204-8.598 18.387-21.04 20.231-35.041 1.654-12.569-1.279-25.017-7.865-35.33L388.43 93.472l5.475 13.218c1.854 4.475 6.181 7.177 10.741 7.177 1.482 0 2.988-.286 4.443-.888 5.929-2.455 8.745-9.255 6.289-15.184l-5.027-12.138 154.234-54.994zm-25.994 76.009a30.099 30.099 0 0 1-3.155-.223c-7.843-1.033-14.816-5.059-19.632-11.336-4.817-6.276-6.901-14.054-5.868-21.897 2.132-16.193 17.036-27.631 33.235-25.502 4.997.658 9.688 2.597 13.689 5.545zM405.322 546.862c-8.509 20.544-32.148 30.334-52.688 21.823-148.796-61.632-264.686-177.523-326.32-326.32-4.122-9.951-4.122-20.911 0-30.863 4.122-9.951 11.872-17.701 21.823-21.823s20.912-4.122 30.863 0 17.702 11.872 21.824 21.823c26.381 63.692 64.475 120.703 113.223 169.451 48.748 48.748 105.759 86.841 169.451 113.223 20.544 8.508 30.334 32.144 21.824 52.686M169.875 171.398l51.156-18.239a29.569 29.569 0 0 1 7.761 24.116c-1.034 7.845-5.06 14.819-11.337 19.636-6.276 4.816-14.048 6.898-21.898 5.867-7.843-1.033-14.816-5.057-19.633-11.335-4.438-5.784-6.55-12.84-6.049-20.045M591.544 3.352A11.618 11.618 0 0 0 579.476.676L96.79 172.782c-16.769-10.255-38.04-12.656-57.548-4.578C6.86 181.618-8.574 218.877 4.839 251.261c31.631 76.36 77.301 144.712 135.745 203.156 58.444 58.444 126.795 104.115 203.156 135.745a63.232 63.232 0 0 0 24.243 4.839c24.956-.001 48.685-14.789 58.813-39.243 6.815-16.453 6.171-34.162-.348-49.367L594.375 15.383a11.623 11.623 0 0 0-2.831-12.031"/><path d="M125.507 311.766a8.7 8.7 0 0 0-.169-.256c-3.558-5.338-10.76-6.771-16.1-3.216-5.33 3.549-6.776 10.753-3.248 16.093a11.616 11.616 0 0 0 9.753 5.284c2.152 0 4.329-.597 6.272-1.846 5.399-3.472 6.962-10.661 3.492-16.059M107.832 282.895a550.042 550.042 0 0 1-30.257-61.763c-2.455-5.931-9.257-8.743-15.182-6.288-5.931 2.456-8.745 9.254-6.289 15.183a573.203 573.203 0 0 0 31.54 64.382 11.617 11.617 0 0 0 15.851 4.338c5.575-3.18 7.518-10.277 4.337-15.852M386.129 205.01c-1.934 14.686-14.537 25.76-29.317 25.76-1.299 0-2.618-.086-3.918-.258-16.194-2.133-27.632-17.041-25.501-33.235 1.934-14.685 14.536-25.757 29.316-25.757 1.299 0 2.618.085 3.919.257 16.192 2.134 27.632 17.042 25.501 33.233m-22.467-56.276a53.342 53.342 0 0 0-6.953-.458c-26.4 0-48.91 19.762-52.359 45.967-3.805 28.9 16.61 55.508 45.509 59.312 2.304.305 4.643.458 6.953.458 26.399 0 48.909-19.762 52.359-45.969 3.804-28.899-16.611-55.505-45.509-59.31M383.105 349.563c-1.934 14.686-14.538 25.76-29.318 25.76-1.298 0-2.617-.088-3.916-.258-7.844-1.035-14.817-5.06-19.634-11.337-4.817-6.276-6.901-14.053-5.867-21.899 1.933-14.684 14.536-25.758 29.315-25.758 1.299 0 2.618.086 3.919.258 16.191 2.133 27.631 17.041 25.501 33.234m-22.467-56.277a53.18 53.18 0 0 0-6.953-.458c-26.4 0-48.91 19.761-52.359 45.968-1.844 14 1.875 27.878 10.471 39.082 8.595 11.203 21.039 18.387 35.039 20.231 2.302.304 4.64.456 6.949.456 26.4 0 48.911-19.762 52.361-45.97 3.806-28.897-16.61-55.502-45.508-59.309M283.99 245.142l-35.719-4.703c-6.36-.845-12.201 3.641-13.039 10.003-.839 6.364 3.641 12.201 10.004 13.039l35.718 4.703c.515.069 1.026.101 1.532.101 5.742 0 10.737-4.257 11.506-10.104.84-6.363-3.639-12.201-10.002-13.039M265.878 330.902l-3.154-23.967c-.838-6.364-6.674-10.845-13.038-10.005-6.363.838-10.842 6.674-10.004 13.038l3.155 23.967c.769 5.849 5.763 10.106 11.506 10.106.506 0 1.017-.033 1.531-.101 6.363-.838 10.842-6.674 10.004-13.038"/></g></svg>